<svg width="179" height="179" viewBox="0 0 179 179" fill="none" xmlns="http://www.w3.org/2000/svg">
<path d="M0 32.5455C0 17.2034 0 9.53234 4.76617 4.76617C9.53234 0 17.2034 0 32.5455 0H169.411C174.707 0 179 4.29327 179 9.58929C179 103.152 103.152 179 9.58928 179C4.29327 179 0 174.707 0 169.411V32.5455Z" fill="#232323"/>
<path d="M35.5 87.6899C35.5 70.7194 35.5 46.0442 40.7204 40.7721C45.9408 35.5 54.3429 35.5 71.1471 35.5H131.089C134.078 35.5 136.5 37.9464 136.5 40.9643C136.5 94.2795 93.7032 137.5 40.9107 137.5C37.9225 137.5 35.5 135.054 35.5 132.036V87.6899Z" fill="#CEEA67"/>
</svg>
